<svg width="24" height="20" viewBox="0 0 24 20" fill="none" xmlns="http://www.w3.org/2000/svg">
<path d="M7.54239 19.3333C16.6031 19.3333 21.5454 11.8978 21.5454 5.45298C21.5454 5.24069 21.5454 5.03113 21.5454 4.82156C22.5081 4.13054 23.3393 3.27533 24 2.29588C23.1025 2.69106 22.15 2.94981 21.1747 3.06338C22.2016 2.45372 22.9704 1.49534 23.3383 0.36624C22.3701 0.929453 21.3127 1.32607 20.211 1.53927C19.535 0.825777 18.6582 0.330272 17.6944 0.117119C16.7307 -0.0960334 15.7246 -0.0169836 14.8067 0.344C13.8889 0.704984 13.1018 1.33122 12.5476 2.14135C11.9935 2.95149 11.6979 3.90809 11.6993 4.88688C11.6979 5.26062 11.7403 5.63327 11.8256 5.99731C9.86678 5.90246 7.95003 5.39977 6.20015 4.52194C4.45028 3.64411 2.90652 2.41084 1.66937 0.902403C1.0388 1.97567 0.844801 3.24688 1.12692 4.457C1.40904 5.66712 2.14604 6.72508 3.18774 7.41528C2.40569 7.39192 1.64088 7.18186 0.958243 6.80291C0.956874 6.82376 0.956874 6.84467 0.958243 6.86551C0.958691 7.99217 1.35242 9.08396 2.0726 9.95559C2.79278 10.8272 3.79504 11.425 4.90928 11.6474C4.18493 11.8424 3.4253 11.8712 2.68802 11.7318C3.00429 12.6998 3.61677 13.5462 4.44043 14.1534C5.26409 14.7606 6.25804 15.0985 7.28429 15.1202C5.54135 16.4768 3.3884 17.2121 1.17241 17.2077C0.780579 17.2084 0.389066 17.1857 0 17.1397C2.24921 18.5742 4.86783 19.3358 7.54239 19.3333Z" fill="#C36DCB"/>
</svg>
