<svg width="36" height="36" viewBox="0 0 36 36" fill="none" xmlns="http://www.w3.org/2000/svg">
<path d="M36 18C35.9999 14.5596 35.0139 11.1913 33.1586 8.29394C31.3034 5.39661 28.6567 3.09165 25.5319 1.65205C22.4072 0.212437 18.9354 -0.301517 15.5276 0.171052C12.1198 0.643621 8.91877 2.08291 6.30368 4.31848C3.68859 6.55404 1.76896 9.49223 0.772123 12.7851C-0.224714 16.0779 -0.256996 19.5874 0.679101 22.898C1.6152 26.2087 3.48046 29.1817 6.05398 31.4649C8.6275 33.7482 11.8015 35.2462 15.2 35.7813V23.2H10.616V18H15.2V14.0347C15.2 9.52266 17.8667 7.032 21.9867 7.032C23.3366 7.05088 24.6833 7.16853 26.016 7.384V11.8133H23.7467C21.5093 11.8133 20.8133 13.2 20.8133 14.624V18H25.8053L25.0053 23.2H20.8133V35.7787C25.0467 35.1082 28.902 32.9494 31.6858 29.6904C34.4697 26.4314 35.9994 22.2861 36 18Z" fill="#4676ED"/>
</svg>
