<svg width="36" height="36" viewBox="0 0 36 36" fill="none" xmlns="http://www.w3.org/2000/svg">
<path d="M18.0001 0C8.06024 0 0 8.25216 0 18.4322C0 26.576 5.15759 33.4851 12.3096 35.9224C13.2092 36.093 13.5395 35.5225 13.5395 35.0357C13.5395 34.5962 13.5228 33.1442 13.515 31.604C8.50736 32.719 7.45068 29.4292 7.45068 29.4292C6.63187 27.2987 5.45209 26.7322 5.45209 26.7322C3.81894 25.5882 5.57519 25.6117 5.57519 25.6117C7.38272 25.7418 8.33447 27.5112 8.33447 27.5112C9.93991 30.3291 12.5454 29.5144 13.5725 29.0434C13.7341 27.8521 14.2006 27.039 14.7154 26.5787C10.7173 26.1126 6.51443 24.5322 6.51443 17.4695C6.51443 15.4571 7.21759 13.8128 8.36905 12.522C8.18216 12.0578 7.56604 10.183 8.54342 7.64415C8.54342 7.64415 10.055 7.14876 13.4947 9.53351C14.9306 9.12512 16.4704 8.92031 18.0001 8.91329C19.5299 8.92031 21.0709 9.12512 22.5094 9.53351C25.945 7.14876 27.4545 7.64415 27.4545 7.64415C28.4343 10.183 27.8178 12.0578 27.631 12.522C28.7851 13.8128 29.4835 15.4571 29.4835 17.4695C29.4835 24.5489 25.2726 26.1077 21.2644 26.5641C21.91 27.1361 22.4853 28.2578 22.4853 29.9774C22.4853 32.4437 22.4644 34.4286 22.4644 35.0357C22.4644 35.5262 22.7884 36.1009 23.7008 35.9199C30.849 33.4799 36 26.5732 36 18.4322C36 8.25216 27.9409 0 18.0001 0ZM6.74164 26.257C6.702 26.3486 6.56131 26.376 6.43313 26.3132C6.30258 26.253 6.22925 26.1282 6.27158 26.0363C6.31033 25.942 6.45132 25.9157 6.58157 25.9789C6.71243 26.0391 6.78695 26.1651 6.74164 26.257ZM7.62705 27.066C7.5412 27.1475 7.37339 27.1096 7.25952 26.9808C7.14178 26.8523 7.11973 26.6805 7.20676 26.5978C7.29529 26.5163 7.45804 26.5544 7.57608 26.6829C7.69382 26.813 7.71677 26.9836 7.62705 27.066ZM8.23447 28.1011C8.12418 28.1795 7.94385 28.106 7.83237 27.9421C7.72208 27.7781 7.72208 27.5816 7.83475 27.5028C7.94653 27.4241 8.12418 27.4949 8.23715 27.6576C8.34714 27.8242 8.34714 28.0208 8.23447 28.1011ZM9.26175 29.2999C9.16309 29.4113 8.95295 29.3813 8.79914 29.2293C8.64176 29.0807 8.59794 28.8698 8.6969 28.7584C8.79676 28.6467 9.00809 28.6781 9.16309 28.8289C9.31928 28.9772 9.36697 29.1897 9.26175 29.2999ZM10.5894 29.7045C10.5459 29.8489 10.3435 29.9145 10.1396 29.8532C9.93604 29.79 9.8028 29.6209 9.84393 29.475C9.88626 29.3297 10.0895 29.2614 10.2949 29.327C10.4982 29.3899 10.6317 29.5577 10.5894 29.7045ZM12.1004 29.8762C12.1054 30.0282 11.9325 30.1543 11.7185 30.157C11.5033 30.1619 11.3292 30.0389 11.3268 29.8893C11.3268 29.7358 11.4959 29.611 11.7111 29.6073C11.9251 29.603 12.1004 29.7251 12.1004 29.8762ZM13.5847 29.8179C13.6103 29.9663 13.4616 30.1186 13.249 30.1592C13.0401 30.1983 12.8466 30.1067 12.8201 29.9596C12.7942 29.8076 12.9456 29.6553 13.1543 29.6159C13.3671 29.578 13.5576 29.6672 13.5847 29.8179Z" fill="#161614"/>
</svg>
