<svg width="36" height="36" viewBox="0 0 36 36" fill="none" xmlns="http://www.w3.org/2000/svg">
<path d="M35.9829 18.3368C35.9829 16.8619 35.8604 15.7856 35.5953 14.6694H18.3586V21.3264H28.4762C28.2723 22.9808 27.1708 25.4722 24.7229 27.1463L24.6886 27.3692L30.1385 31.4945L30.5161 31.5313C33.9838 28.4021 35.9829 23.7979 35.9829 18.3368Z" fill="#4285F4"/>
<path d="M18.3586 35.8763C23.3154 35.8763 27.4766 34.2818 30.5161 31.5313L24.7229 27.1463C23.1727 28.2027 21.092 28.9402 18.3586 28.9402C13.5038 28.9402 9.38339 25.811 7.91456 21.486L7.69927 21.5038L2.03236 25.7891L1.95825 25.9904C4.97719 31.8501 11.1783 35.8763 18.3586 35.8763Z" fill="#34A853"/>
<path d="M7.91452 21.4859C7.52695 20.3698 7.30266 19.1738 7.30266 17.9382C7.30266 16.7023 7.52695 15.5065 7.89412 14.3904L7.88386 14.1527L2.14594 9.79858L1.9582 9.88584C0.713953 12.3175 0 15.0481 0 17.9382C0 20.8282 0.713953 23.5587 1.9582 25.9903L7.91452 21.4859Z" fill="#FBBC05"/>
<path d="M18.3586 6.93605C21.8059 6.93605 24.1313 8.39102 25.4573 9.60692L30.6384 4.66392C27.4564 1.77389 23.3154 0 18.3586 0C11.1783 0 4.97719 4.02609 1.95825 9.88585L7.89417 14.3904C9.38339 10.0653 13.5038 6.93605 18.3586 6.93605Z" fill="#EB4335"/>
</svg>
