<svg width="66" height="52" viewBox="0 0 66 52" fill="none" xmlns="http://www.w3.org/2000/svg">
<g filter="url(#filter0_f_1_3)">
<mask id="path-1-outside-1_1_3" maskUnits="userSpaceOnUse" x="3.01939" y="30" width="33" height="27" fill="black">
<rect fill="white" x="3.01939" y="30" width="33" height="27"/>
<path d="M18.2804 32.9263C19.0664 31.6912 20.8692 31.6912 21.6551 32.9263L33.6002 51.6974C34.4475 53.0289 33.4911 54.7712 31.9129 54.7712H8.02264C6.44446 54.7712 5.48803 53.0289 6.33531 51.6974L18.2804 32.9263Z"/>
</mask>
<path d="M6.33531 51.6974L4.64798 50.6237L6.33531 51.6974ZM33.6002 51.6974L35.2876 50.6237L33.6002 51.6974ZM21.6551 32.9263L23.3424 31.8525L21.6551 32.9263ZM18.2804 32.9263L16.5931 31.8525L18.2804 32.9263ZM19.9678 34L31.9129 52.7712L35.2876 50.6237L23.3424 31.8525L19.9678 34ZM31.9129 52.7712H8.02264V56.7712H31.9129V52.7712ZM8.02264 52.7712L19.9678 34L16.5931 31.8525L4.64798 50.6237L8.02264 52.7712ZM8.02264 52.7712L8.02264 52.7712L4.64798 50.6237C2.95343 53.2866 4.86628 56.7712 8.02264 56.7712V52.7712ZM31.9129 52.7712L31.9129 52.7712V56.7712C35.0693 56.7712 36.9821 53.2866 35.2876 50.6237L31.9129 52.7712ZM23.3424 31.8525C21.7706 29.3825 18.1649 29.3825 16.5931 31.8525L19.9678 34L19.9678 34L23.3424 31.8525Z" fill="#44DDFF" fill-opacity="0.4" mask="url(#path-1-outside-1_1_3)"/>
</g>
<g filter="url(#filter1_f_1_3)">
<mask id="path-3-outside-2_1_3" maskUnits="userSpaceOnUse" x="3.01939" y="30" width="33" height="27" fill="black">
<rect fill="white" x="3.01939" y="30" width="33" height="27"/>
<path d="M18.2804 32.9263C19.0664 31.6912 20.8692 31.6912 21.6551 32.9263L33.6002 51.6974C34.4475 53.0289 33.4911 54.7712 31.9129 54.7712H8.02264C6.44446 54.7712 5.48803 53.0289 6.33531 51.6974L18.2804 32.9263Z"/>
</mask>
<path d="M6.33531 51.6974L4.64798 50.6237L6.33531 51.6974ZM33.6002 51.6974L35.2876 50.6237L33.6002 51.6974ZM21.6551 32.9263L23.3424 31.8525L21.6551 32.9263ZM18.2804 32.9263L16.5931 31.8525L18.2804 32.9263ZM19.9678 34L31.9129 52.7712L35.2876 50.6237L23.3424 31.8525L19.9678 34ZM31.9129 52.7712H8.02264V56.7712H31.9129V52.7712ZM8.02264 52.7712L19.9678 34L16.5931 31.8525L4.64798 50.6237L8.02264 52.7712ZM8.02264 52.7712L8.02264 52.7712L4.64798 50.6237C2.95343 53.2866 4.86628 56.7712 8.02264 56.7712V52.7712ZM31.9129 52.7712L31.9129 52.7712V56.7712C35.0693 56.7712 36.9821 53.2866 35.2876 50.6237L31.9129 52.7712ZM23.3424 31.8525C21.7706 29.3825 18.1649 29.3825 16.5931 31.8525L19.9678 34L19.9678 34L23.3424 31.8525Z" fill="#44DDFF" fill-opacity="0.7" mask="url(#path-3-outside-2_1_3)"/>
</g>
<mask id="path-5-outside-3_1_3" maskUnits="userSpaceOnUse" x="3.01939" y="30" width="33" height="27" fill="black">
<rect fill="white" x="3.01939" y="30" width="33" height="27"/>
<path d="M18.2804 32.9263C19.0664 31.6912 20.8692 31.6912 21.6551 32.9263L33.6002 51.6974C34.4475 53.0289 33.4911 54.7712 31.9129 54.7712H8.02264C6.44446 54.7712 5.48803 53.0289 6.33531 51.6974L18.2804 32.9263Z"/>
</mask>
<path d="M33.6002 51.6974L31.9129 52.7712L33.6002 51.6974ZM21.6551 32.9263L19.9678 34L21.6551 32.9263ZM19.9678 34L31.9129 52.7712L35.2876 50.6237L23.3424 31.8525L19.9678 34ZM31.9129 52.7712H8.02264V56.7712H31.9129V52.7712ZM8.02264 52.7712L19.9678 34L16.5931 31.8525L4.64798 50.6237L8.02264 52.7712ZM8.02264 52.7712L8.02264 52.7712L4.64798 50.6237C2.95343 53.2866 4.86628 56.7712 8.02264 56.7712V52.7712ZM31.9129 52.7712L31.9129 52.7712V56.7712C35.0693 56.7712 36.9821 53.2866 35.2876 50.6237L31.9129 52.7712ZM23.3424 31.8525C21.7706 29.3825 18.1649 29.3825 16.5931 31.8525L19.9678 34L19.9678 34L23.3424 31.8525Z" fill="#44DDFF" mask="url(#path-5-outside-3_1_3)"/>
<path d="M18.2756 32.9432C19.0601 31.698 20.8755 31.698 21.66 32.9432L33.6245 51.9339C34.4636 53.2657 33.5065 55 31.9324 55H8.00322C6.42911 55 5.47197 53.2657 6.31106 51.9339L18.2756 32.9432Z" fill="#0A1B34"/>
<defs>
<filter id="filter0_f_1_3" x="-10.9839" y="15" width="61.9033" height="56.7712" filterUnits="userSpaceOnUse" color-interpolation-filters="sRGB">
<feFlood flood-opacity="0" result="BackgroundImageFix"/>
<feBlend mode="normal" in="SourceGraphic" in2="BackgroundImageFix" result="shape"/>
<feGaussianBlur stdDeviation="7.5" result="effect1_foregroundBlur_1_3"/>
</filter>
<filter id="filter1_f_1_3" x="-25.9839" y="0" width="91.9033" height="86.7712" filterUnits="userSpaceOnUse" color-interpolation-filters="sRGB">
<feFlood flood-opacity="0" result="BackgroundImageFix"/>
<feBlend mode="normal" in="SourceGraphic" in2="BackgroundImageFix" result="shape"/>
<feGaussianBlur stdDeviation="15" result="effect1_foregroundBlur_1_3"/>
</filter>
</defs>
</svg>
