<svg width="24" height="24" viewBox="0 0 24 24" fill="none" xmlns="http://www.w3.org/2000/svg">
<path d="M13.2852 10.131C13.619 9.75507 13.8866 9.37617 14.2355 9.0544C14.7309 8.57086 15.3176 8.19075 15.9614 7.93622C16.6052 7.6817 17.2932 7.55784 17.9854 7.57187C18.7823 7.5646 19.5764 7.66577 20.346 7.87259C22.1082 8.3808 23.1306 9.59569 23.6208 11.3158C23.9448 12.6009 24.0915 13.9243 24.0568 15.2491C24.0568 18.0518 24.0568 20.8575 24.0568 23.6692C24.0568 23.9308 23.9847 24 23.726 24C22.2786 23.9879 20.8342 23.9879 19.3927 24C19.1371 24 19.092 23.9218 19.092 23.6812C19.092 21.0128 19.092 18.3455 19.092 15.6792C19.1074 15.0089 19.0284 14.3397 18.8575 13.6914C18.5116 12.4886 17.6546 11.8871 16.4006 11.9503C14.6895 12.0405 13.7964 12.8885 13.5799 14.6297C13.5269 15.0445 13.5008 15.4624 13.5017 15.8806C13.5017 18.4758 13.5017 21.071 13.5017 23.6662C13.5017 23.9248 13.4356 24.003 13.1709 24C11.7185 24 10.263 24 8.80755 24C8.57299 24 8.50684 23.9398 8.50684 23.6992C8.50684 18.559 8.50684 13.4218 8.50684 8.28758C8.50684 8.03197 8.58803 7.97182 8.8286 7.98686C10.2119 7.98686 11.5922 7.98686 12.9755 7.98686C13.2281 7.98686 13.2942 8.06505 13.2762 8.30562C13.2762 8.90103 13.2852 9.5175 13.2852 10.131Z" fill="#C36DCB"/>
<path d="M5.37086 16.0008C5.37086 18.5448 5.37086 21.0859 5.37086 23.6269C5.37086 23.9096 5.30169 23.9938 5.01 23.9908C3.56657 23.9908 2.12013 23.9908 0.676692 23.9908C0.445141 23.9908 0.375977 23.9366 0.375977 23.69C0.375977 18.5438 0.375977 13.3986 0.375977 8.25433C0.375977 8.04082 0.430105 7.95361 0.655642 7.95361C2.12013 7.95361 3.58461 7.95361 5.04909 7.95361C5.33177 7.95361 5.37086 8.06187 5.36785 8.30244C5.36585 10.8726 5.36685 13.4387 5.37086 16.0008Z" fill="#C36DCB"/>
<path d="M5.76768 2.86883C5.77066 3.44009 5.60391 3.99937 5.28857 4.47572C4.97324 4.95207 4.52353 5.32404 3.9965 5.54444C3.46946 5.76485 2.88883 5.82375 2.32827 5.7137C1.7677 5.60364 1.25245 5.32957 0.847868 4.92626C0.443287 4.52294 0.167604 4.00856 0.0557855 3.44834C-0.0560329 2.88812 0.00105187 2.30731 0.219799 1.77959C0.438547 1.25186 0.8091 0.800987 1.28446 0.484159C1.75982 0.167331 2.31857 -0.00117743 2.88984 6.19286e-06C3.65056 0.00315247 4.37936 0.306128 4.91812 0.843201C5.45689 1.38027 5.76215 2.10812 5.76768 2.86883Z" fill="#C36DCB"/>
</svg>
